<?xml version="1.0" encoding="UTF-8" standalone="no"?>
<svg
   xmlns:dc="http://purl.org/dc/elements/1.1/"
   xmlns:cc="http://creativecommons.org/ns#"
   xmlns:rdf="http://www.w3.org/1999/02/22-rdf-syntax-ns#"
   xmlns:svg="http://www.w3.org/2000/svg"
   xmlns="http://www.w3.org/2000/svg"
   viewBox="0 0 429.06274 117.1065"
   height="117.1065"
   width="429.06274"
   xml:space="preserve"
   version="1.1"
   id="svg3520"><defs
     id="defs3524"><clipPath
       id="clipPath3554"
       clipPathUnits="userSpaceOnUse"><path
         id="path3556"
         d="M 0,170 446,170 446,0 0,0 0,170 Z" /></clipPath></defs><g
     transform="matrix(1.25,0,0,-1.25,-58.10775,163.7235)"
     id="g3528"><g
       transform="translate(76.1162,130.9785)"
       id="g3530"><path
         id="path3532"
         style="fill:#007ee5;fill-opacity:1;fill-rule:nonzero;stroke:none"
         d="M 0,0 -29.63,-19.346 -9.143,-35.752 20.732,-17.305 0,0 Z" /></g><g
       transform="translate(46.4863,78.8198)"
       id="g3534"><path
         id="path3536"
         style="fill:#007ee5;fill-opacity:1;fill-rule:nonzero;stroke:none"
         d="M 0,0 29.63,-19.346 50.362,-2.04 20.487,16.407 0,0 Z" /></g><g
       transform="translate(96.8486,76.7798)"
       id="g3538"><path
         id="path3540"
         style="fill:#007ee5;fill-opacity:1;fill-rule:nonzero;stroke:none"
         d="M 0,0 20.733,-17.306 50.362,2.04 29.875,18.447 0,0 Z" /></g><g
       transform="translate(147.2109,111.6328)"
       id="g3542"><path
         id="path3544"
         style="fill:#007ee5;fill-opacity:1;fill-rule:nonzero;stroke:none"
         d="M 0,0 -29.629,19.346 -50.362,2.041 -20.487,-16.406 0,0 Z" /></g><g
       transform="translate(96.9092,73.0566)"
       id="g3546"><path
         id="path3548"
         style="fill:#007ee5;fill-opacity:1;fill-rule:nonzero;stroke:none"
         d="m 0,0 -20.793,-17.254 -8.897,5.809 0,-6.513 29.69,-17.805 29.691,17.805 0,6.513 -8.896,-5.809 L 0,0 Z" /></g><g
       id="g3550"><g
         clip-path="url(#clipPath3554)"
         id="g3552"><g
           transform="translate(173.7266,102.6348)"
           id="g3558"><path
             id="path3560"
             style="fill:#007ee5;fill-opacity:1;fill-rule:nonzero;stroke:none"
             d="m 0,0 1.955,0 c 4.619,0 10.961,-0.547 10.961,-16.562 0,-17.032 -6.419,-17.58 -10.961,-17.58 L 0,-34.142 0,0 Z m -11.43,-43.126 13.699,0 c 3.992,0 9.627,0 14.248,3.594 5.636,4.297 8.533,13.047 8.533,22.814 C 25.05,8.908 8.844,8.986 0.859,8.986 l -12.289,0 0,-52.112 z" /></g><g
           transform="translate(202.7119,98.0259)"
           id="g3562"><path
             id="path3564"
             style="fill:#007ee5;fill-opacity:1;fill-rule:nonzero;stroke:none"
             d="m 0,0 0,-38.517 10.723,0 0,16.641 c 0,2.969 0,11.876 7.905,11.876 0.393,0 0.861,0 1.799,-0.157 l 0,10.469 c -0.546,0.157 -1.092,0.236 -1.878,0.236 -6.261,0 -8.14,-6.564 -9.079,-9.845 L 9.47,0 0,0 Z" /></g><g
           transform="translate(240.333,91.3848)"
           id="g3566"><path
             id="path3568"
             style="fill:#007ee5;fill-opacity:1;fill-rule:nonzero;stroke:none"
             d="m 0,0 c 3.29,0 4.541,-2.656 4.541,-12.579 0,-10.313 -1.409,-12.579 -4.541,-12.579 -3.209,0 -4.617,2.345 -4.617,12.579 0,9.453 1.096,12.579 4.54,12.579 L 0,0 Z m 0,7.501 c -11.506,0 -15.732,-8.048 -15.732,-20.08 0,-12.422 4.538,-20.078 15.655,-20.078 11.272,0 15.734,7.734 15.734,20.078 0,12.032 -4.226,20.08 -15.657,20.08" /></g><g
           transform="translate(269.7393,82.5566)"
           id="g3570"><path
             id="path3572"
             style="fill:#007ee5;fill-opacity:1;fill-rule:nonzero;stroke:none"
             d="m 0,0 c 0,3.437 0,8.905 4.853,8.905 4.149,0 4.461,-5.389 4.461,-12.187 0,-8.126 -0.389,-12.891 -4.775,-12.891 C 0,-16.173 0,-12.891 0,-7.344 L 0,0 Z m -10.568,15.469 0,-51.565 10.568,0 0,15.859 c 1.174,-1.249 3.131,-3.357 7.358,-3.357 12.289,0 13.074,14.844 13.074,20.312 0,6.485 -1.252,12.502 -5.011,16.329 -1.877,1.875 -4.775,2.97 -7.358,2.97 -5.245,0 -7.359,-3.828 -8.69,-6.329 l 0,5.781 -9.941,0 z" /></g><g
           transform="translate(303.9316,84.4312)"
           id="g3574"><path
             id="path3576"
             style="fill:#007ee5;fill-opacity:1;fill-rule:nonzero;stroke:none"
             d="m 0,0 c 0,1.953 0,3.906 1.255,5.392 0.782,1.015 2.034,1.639 3.443,1.639 3.053,0 4.697,-2.578 4.697,-12.734 0,-9.923 -1.486,-12.578 -4.854,-12.578 C 0,-18.281 0,-13.282 0,-8.905 L 0,0 Z m -10.568,27.189 0,-52.111 6.341,0 c 0.861,2.734 1.253,3.515 2.037,5 0.937,-1.953 2.739,-5.781 8.924,-5.781 2.036,0 4.149,0.39 6.262,1.483 7.046,3.672 7.516,15.236 7.516,18.83 0,9.296 -2.975,19.533 -12.449,19.533 C 3.445,14.143 1.334,11.641 0,10 l 0,17.189 -10.568,0 z" /></g><g
           transform="translate(342.8721,91.3848)"
           id="g3578"><path
             id="path3580"
             style="fill:#007ee5;fill-opacity:1;fill-rule:nonzero;stroke:none"
             d="m 0,0 c 3.285,0 4.539,-2.656 4.539,-12.579 0,-10.313 -1.408,-12.579 -4.539,-12.579 -3.211,0 -4.622,2.345 -4.622,12.579 C -4.622,-3.126 -3.524,0 -0.079,0 L 0,0 Z m 0,7.501 c -11.509,0 -15.736,-8.048 -15.736,-20.08 0,-12.422 4.542,-20.078 15.657,-20.078 11.272,0 15.734,7.734 15.734,20.078 0,12.032 -4.228,20.08 -15.655,20.08" /></g><g
           transform="translate(358.1104,98.0259)"
           id="g3582"><path
             id="path3584"
             style="fill:#007ee5;fill-opacity:1;fill-rule:nonzero;stroke:none"
             d="m 0,0 9.943,-18.83 -11.428,-19.687 9.313,0 6.498,11.561 5.636,-11.561 11.664,0 L 20.118,-16.954 30.059,0 20.746,0 15.813,-8.906 11.665,0 0,0 Z" /></g></g></g></g></svg>